#!OML:ASF F:\VICON\USERDATA\INSTALL\Justin_Nancy\Justin_Nancy.ASF
:FULLY-SPECIFIED
:DEGREES
1
root -7.97159 17.6927 -30.9349 -0.359905 -4.12728 -1.40661
lowerback 7.50581 -3.475 -3.89494
upperback -1.45652 -4.70719 6.30986
thorax -4.89231 -2.14078 9.44275
lowerneck -6.21334 1.14246 -15.0805
upperneck 22.6982 2.78075 4.29205
head 7.79909 0.440434 4.18368
rclavicle 8.59744e-015 -2.06736e-014
rhumerus -35.6937 -0.180663 -77.8608
rradius 29.1875
rwrist 6.06639
rhand -16.2475 11.0463
rfingers 7.12502
rthumb 9.96142 -18.6979
lclavicle 8.59744e-015 -2.06736e-014
lhumerus -36.5204 13.0675 86.2619
lradius 31.7193
lwrist -11.1063
lhand -12.9878 31.0674
lfingers 7.12502
lthumb 13.105 60.6356
rfemur -9.54811 6.56217 28.0962
rtibia 20.8314
rfoot -6.26335 -4.3984
rtoes 14.2094
lfemur -24.42 0.678444 -17.418
ltibia 66.431
lfoot 0.363978 -2.6942
ltoes -3.77536
2
root -7.97971 17.6808 -30.7831 -0.495701 -4.12601 -1.4845
lowerback 7.08152 -1.93613 -1.93701
upperback -0.399263 -2.55641 4.57662
thorax -4.09561 -1.18372 6.14445
lowerneck -8.73989 -0.68389 -12.3837
upperneck 22.9967 0.0940413 4.91466
head 8.60513 -0.536718 3.76656
rclavicle 1.59028e-015 1.19271e-014
rhumerus -34.8673 -6.18112 -78.2151
rradius 29.7345
rwrist 6.32886
rhand -16.6252 9.99368
rfingers 7.12502
rthumb 9.59698 -19.7677
lclavicle 1.59028e-015 1.19271e-014
lhumerus -33.5565 7.35573 86.6246
lradius 30.6829
lwrist -11.2903
lhand -12.0805 30.4844
lfingers 7.12502
lthumb 13.9794 59.9944
rfemur -8.90905 6.28326 28.2633
rtibia 21.1498
rfoot -7.58691 -4.66479
rtoes 12.0542
lfemur -25.1258 0.644005 -17.3534
ltibia 65.7309
lfoot -0.39323 -2.28281
ltoes -1.95065
3
root -7.987 17.6618 -30.6398 -0.479265 -4.35801 -1.7566
lowerback 7.49621 -2.2083 -2.19554
upperback -0.862475 -2.90788 5.12286
thorax -4.73361 -1.32052 6.95696
lowerneck -8.15083 -0.137132 -13.038
upperneck 23.0078 0.92321 4.73363
head 8.4274 -0.224842 3.88457
rclavicle 3.90115e-015 1.90833e-014
rhumerus -35.0357 -3.84834 -78.2439
rradius 29.9603
rwrist 5.90209
rhand -16.9109 9.74651
rfingers 7.12502
rthumb 9.32128 -20.0274
lclavicle 3.90115e-015 1.90833e-014
lhumerus -34.8889 9.04666 86.7159
lradius 30.5923
lwrist -11.1017
lhand -12.5235 29.7945
lfingers 7.12502
lthumb 13.5525 59.3334
rfemur -8.53667 6.04495 28.6366
rtibia 21.3183
rfoot -8.46204 -4.26152
rtoes 9.76995
lfemur -26.1019 0.865389 -17.0915
ltibia 65.0509
lfoot -1.45221 -2.09961
ltoes -2.61795
4
root -7.9955 17.632 -30.4996 -0.604708 -4.60973 -2.19186
lowerback 7.86444 -2.1755 -1.90422
upperback -0.924425 -2.82281 5.32551
thorax -5.02272 -1.27343 7.02476
lowerneck -8.10383 -0.00186531 -13.1863
upperneck 22.9481 1.13414 4.71435
head 8.37876 -0.137489 3.91923
rclavicle -5.04416e-015 9.54166e-015
rhumerus -34.6813 -3.1469 -78.3084
rradius 30.0216
rwrist 6.07243
rhand -16.8696 10.8274
rfingers 7.12502
rthumb 9.36118 -18.9447
lclavicle -5.04416e-015 9.54166e-015
lhumerus -35.4889 9.56169 86.7825
lradius 30.5884
lwrist -11.3176
lhand -12.5584 29.6379
lfingers 7.12502
lthumb 13.5188 59.1791
rfemur -7.98739 6.01484 29.2127
rtibia 21.5234
rfoot -9.22757 -3.7655
rtoes 10.0775
lfemur -26.8791 1.01128 -16.6315
ltibia 64.2951
lfoot -2.31338 -2.02934
ltoes -2.92731
5
root -8.00252 17.6098 -30.3579 -0.672215 -4.95285 -2.43247
lowerback 7.98155 -1.98534 -1.69999
upperback -0.917118 -2.54494 5.36774
thorax -5.12524 -1.13737 6.92867
lowerneck -7.76033 -0.104024 -13.2012
upperneck 22.7911 0.955936 4.65375
head 8.28151 -0.225261 3.87758
rclavicle -1.13556e-014 2.22639e-014
rhumerus -34.3841 -2.97061 -78.3261
rradius 30.1662
rwrist 6.31952
rhand -16.71 13.1288
rfingers 7.12502
rthumb 9.51515 -16.6364
lclavicle -1.13556e-014 2.22639e-014
lhumerus -35.8968 9.65956 86.8922
lradius 30.5613
lwrist -11.8765
lhand -12.0788 30.6489
lfingers 7.12502
lthumb 13.9811 60.1588
rfemur -7.34305 6.08392 29.5458
rtibia 21.6562
rfoot -10.1724 -2.85725
rtoes 10.8979
lfemur -27.599 1.25198 -16.4164
ltibia 63.3968
lfoot -3.5963 -1.91903
ltoes -4.76641
6
root -8.00913 17.5972 -30.2075 -0.656503 -5.36631 -2.51123
lowerback 7.90773 -1.98162 -1.81616
upperback -1.02714 -2.54115 5.53743
thorax -5.18806 -1.12618 7.17973
lowerneck -7.2086 0.028897 -13.3233
upperneck 22.7647 1.14407 4.33544
head 8.1614 -0.18039 3.79834
rclavicle -6.61704e-014 3.02153e-014
rhumerus -34.2721 -1.81781 -78.4566
rradius 30.4308
rwrist 6.03977
rhand -16.6431 14.7828
rfingers 7.12502
rthumb 9.57966 -14.9794
lclavicle -6.61704e-014 3.02153e-014
lhumerus -36.7538 10.2537 86.9592
lradius 30.5338
lwrist -11.642
lhand -12.2345 30.3526
lfingers 7.12502
lthumb 13.831 59.8727
rfemur -6.77546 6.36446 29.6861
rtibia 21.7615
rfoot -9.7104 -4.14378
rtoes 12.6803
lfemur -28.2459 1.44973 -16.4023
ltibia 62.3038
lfoot -4.60932 -1.52558
ltoes -5.44095
7
root -8.01201 17.5812 -30.0566 -0.756303 -5.80763 -2.74712
lowerback 7.9161 -2.02904 -1.53998
upperback -0.994168 -2.57508 5.61804
thorax -5.16178 -1.15172 7.11024
lowerneck -7.23353 0.194347 -13.608
upperneck 22.5637 1.39427 4.45359
head 8.07187 -0.0662333 3.90176
rclavicle 2.49972e-014 0
rhumerus -33.9214 -0.878927 -78.6939
rradius 30.5939
rwrist 5.6928
rhand -15.894 15.6053
rfingers 7.12502
rthumb 10.3024 -14.1224
lclavicle 2.49972e-014 0
lhumerus -37.4236 10.8615 86.8588
lradius 30.4061
lwrist -11.3284
lhand -13.1152 28.9429
lfingers 7.12502
lthumb 12.9821 58.519
rfemur -6.11643 6.6169 29.9879
rtibia 21.8995
rfoot -10.3261 -3.92733
rtoes 9.13568
lfemur -28.6662 1.64681 -16.2361
ltibia 61.062
lfoot -5.13818 -1.0404
ltoes -5.59058
8
root -8.01206 17.5601 -29.914 -0.809303 -6.18054 -3.0638
lowerback 7.90407 -1.63007 -0.536574
upperback -0.677597 -1.97413 5.18261
thorax -4.94745 -0.89663 5.98124
lowerneck -7.87511 -0.0970015 -12.9972
upperneck 22.2951 0.942126 4.68843
head 8.13369 -0.191448 3.8431
rclavicle 2.6339e-015 -3.97569e-014
rhumerus -33.0676 -2.14906 -78.9284
rradius 30.7143
rwrist 5.47396
rhand -14.6146 15.9087
rfingers 7.12502
rthumb 11.5365 -13.7538
lclavicle 2.6339e-015 -3.97569e-014
lhumerus -36.8883 9.71927 86.8515
lradius 30.0017
lwrist -11.5062
lhand -13.1032 29.3377
lfingers 7.12502
lthumb 12.9937 58.9131
rfemur -5.51273 6.60618 30.3377
rtibia 21.9937
rfoot -10.9441 -3.54196
rtoes 10.5175
lfemur -29.1559 1.80816 -15.9854
ltibia 59.6729
lfoot -5.50941 -0.523094
ltoes -5.91137
9
root -8.01647 17.5386 -29.7693 -0.7381 -6.32146 -3.22263
lowerback 7.82804 -1.34536 -0.0443729
upperback -0.461326 -1.56827 4.92265
thorax -4.73981 -0.717358 5.36398
lowerneck -8.50943 -0.376786 -12.6134
upperneck 22.2674 0.554793 4.82253
head 8.27301 -0.323654 3.79647
rclavicle 4.17448e-015 -2.62396e-014
rhumerus -32.29 -2.70922 -79.2364
rradius 31.092
rwrist 5.25319
rhand -14.6962 14.7062
rfingers 7.12502
rthumb 11.4577 -14.9607
lclavicle 4.17448e-015 -2.62396e-014
lhumerus -36.3688 9.05129 86.9383
lradius 29.6221
lwrist -11.6311
lhand -12.6403 31.3048
lfingers 7.12502
lthumb 13.4399 60.8513
rfemur -5.02826 6.31519 30.5076
rtibia 21.9832
rfoot -11.4713 -3.23893
rtoes 11.8027
lfemur -29.7301 1.75075 -15.8883
ltibia 58.0921
lfoot -5.67011 0.0499057
ltoes -5.85056
10
root -8.02523 17.5235 -29.622 -0.64116 -6.19055 -3.38115
lowerback 7.89925 -1.56297 -0.148261
upperback -0.687188 -1.84686 5.17128
thorax -4.98069 -0.843114 5.73223
lowerneck -8.17199 -0.189865 -12.9007
upperneck 22.1926 0.840233 4.69773
head 8.16264 -0.22459 3.82187
rclavicle -1.45858e-014 4.6118e-014
rhumerus -32.1537 -1.2189 -79.5071
rradius 31.5942
rwrist 4.80443
rhand -15.4728 13.4081
rfingers 7.12502
rthumb 10.7087 -16.2989
lclavicle -1.45858e-014 4.6118e-014
lhumerus -37.2537 10.2758 86.7293
lradius 29.6739
lwrist -12.0175
lhand -11.0959 30.9938
lfingers 7.12502
lthumb 14.9281 60.4358
rfemur -4.51489 6.10523 30.7142
rtibia 21.8597
rfoot -11.7871 -3.39813
rtoes 12.3473
lfemur -30.27 1.45853 -15.7955
ltibia 56.3677
lfoot -9.49624 0.748125
ltoes -21.6851
11
root -8.02757 17.5211 -29.47 -0.642003 -6.22039 -3.42477
lowerback 7.86624 -1.65784 -0.074939
upperback -0.730143 -1.96307 5.2348
thorax -4.99606 -0.901309 5.7718
lowerneck -7.97112 -0.174387 -13.2302
upperneck 22.13 0.878636 4.72931
head 8.10252 -0.230013 3.88716
rclavicle 3.44146e-014 -2.22639e-014
rhumerus -31.7805 -0.389781 -79.7329
rradius 31.9096
rwrist 4.61953
rhand -15.5777 13.1716
rfingers 7.12502
rthumb 10.6075 -16.5407
lclavicle 3.44146e-014 -2.22639e-014
lhumerus -37.8547 11.12 86.558
lradius 29.7157
lwrist -12.2623
lhand -10.9386 30.4632
lfingers 7.12502
lthumb 15.0797 59.8939
rfemur -3.74572 6.0356 30.7628
rtibia 21.5449
rfoot -12.1402 -3.49906
rtoes 12.266
lfemur -30.561 1.12753 -15.8269
ltibia 54.4933
lfoot -8.18942 1.77277
ltoes -16.3393
